<svg xmlns="http://www.w3.org/2000/svg" xmlns:xlink="http://www.w3.org/1999/xlink" width="500" zoomAndPan="magnify" viewBox="0 0 375 374.999991" height="500" preserveAspectRatio="xMidYMid meet" version="1.0"><defs><clipPath id="d8c70588b4"><path d="M 117.75 135 L 257.25 135 L 257.25 245 L 117.75 245 Z M 117.75 135 " clip-rule="nonzero"/></clipPath></defs><g clip-path="url(#d8c70588b4)"><path fill="#00bf63" d="M 256.398438 135.925781 C 255.882812 135.714844 255.28125 135.828125 254.878906 136.21875 L 187.5 202.339844 L 120.121094 136.21875 C 119.71875 135.828125 119.132812 135.714844 118.601562 135.925781 C 118.085938 136.148438 117.75 136.648438 117.75 137.207031 L 117.75 243.226562 C 117.75 243.996094 118.378906 244.621094 119.144531 244.621094 C 119.914062 244.621094 120.539062 243.996094 120.539062 243.226562 L 120.539062 140.527344 L 143.515625 163.070312 C 132.273438 184.46875 136.261719 211.144531 153.421875 228.300781 C 164.148438 239.027344 178.433594 244.609375 192.855469 244.609375 C 202.441406 244.609375 212.09375 242.140625 220.8125 237.074219 C 221.480469 236.683594 221.707031 235.835938 221.316406 235.164062 C 220.925781 234.496094 220.074219 234.273438 219.402344 234.664062 C 198.675781 246.714844 172.351562 243.285156 155.386719 226.320312 C 139.289062 210.234375 135.410156 185.335938 145.609375 165.136719 L 186.523438 205.285156 C 186.59375 205.355469 186.691406 205.394531 186.773438 205.453125 C 186.84375 205.492188 186.898438 205.550781 186.984375 205.589844 C 187.082031 205.632812 187.179688 205.632812 187.277344 205.648438 C 187.359375 205.660156 187.429688 205.6875 187.515625 205.6875 C 187.597656 205.6875 187.667969 205.660156 187.75 205.648438 C 187.847656 205.632812 187.945312 205.617188 188.03125 205.589844 C 188.101562 205.5625 188.167969 205.507812 188.226562 205.464844 C 188.308594 205.410156 188.40625 205.382812 188.476562 205.296875 L 254.460938 140.527344 L 254.460938 243.226562 C 254.460938 243.996094 255.085938 244.621094 255.855469 244.621094 C 256.621094 244.621094 257.25 243.996094 257.25 243.226562 L 257.25 137.207031 C 257.25 136.648438 256.914062 136.132812 256.398438 135.925781 Z M 256.398438 135.925781 " fill-opacity="1" fill-rule="nonzero"/></g><path fill="#00bf63" d="M 154.886719 151.507812 C 155.234375 151.507812 155.582031 151.382812 155.863281 151.101562 C 172.8125 134.558594 198.9375 131.320312 219.402344 143.207031 C 220.058594 143.597656 220.925781 143.375 221.316406 142.703125 C 221.707031 142.035156 221.480469 141.183594 220.8125 140.792969 C 199.261719 128.265625 171.75 131.699219 153.921875 149.105469 C 153.378906 149.652344 153.363281 150.53125 153.894531 151.074219 C 154.171875 151.367188 154.535156 151.507812 154.886719 151.507812 Z M 154.886719 151.507812 " fill-opacity="1" fill-rule="nonzero"/></svg>